<?xml version="1.0" encoding="UTF-8" standalone="no"?>
<!-- Created with Inkscape (http://www.inkscape.org/) -->

<svg
   width="210mm"
   height="297mm"
   viewBox="0 0 210 297"
   version="1.1"
   id="svg1"
   xml:space="preserve"
   inkscape:version="1.3 (0e150ed6c4, 2023-07-21)"
   sodipodi:docname="contacto.svg"
   xmlns:inkscape="http://www.inkscape.org/namespaces/inkscape"
   xmlns:sodipodi="http://sodipodi.sourceforge.net/DTD/sodipodi-0.dtd"
   xmlns="http://www.w3.org/2000/svg"
   xmlns:svg="http://www.w3.org/2000/svg"><sodipodi:namedview
     id="namedview1"
     pagecolor="#ffffff"
     bordercolor="#000000"
     borderopacity="0.25"
     inkscape:showpageshadow="2"
     inkscape:pageopacity="0.0"
     inkscape:pagecheckerboard="0"
     inkscape:deskcolor="#d1d1d1"
     inkscape:document-units="mm"
     inkscape:zoom="0.45344416"
     inkscape:cx="69.468311"
     inkscape:cy="605.36671"
     inkscape:window-width="1360"
     inkscape:window-height="705"
     inkscape:window-x="-8"
     inkscape:window-y="-8"
     inkscape:window-maximized="1"
     inkscape:current-layer="layer1" /><defs
     id="defs1" /><g
     inkscape:label="Capa 1"
     inkscape:groupmode="layer"
     id="layer1"><rect
       style="fill:#ffffff;stroke-width:0.264583;fill-opacity:1"
       id="rect7"
       width="190.80353"
       height="201.30647"
       x="8.1689587"
       y="41.428288" /><g
       id="g7"
       transform="translate(162.34076,124.14035)"><path
         style="fill:#000000;stroke-width:0.264583"
         d="m -133.25195,31.872611 c -3.3589,-0.6797 -7.206,-5.00144 -6.71023,-9.6277 -0.38801,-5.15716 2.42995,-8.02409 6.49141,-10.2112 z"
         id="path4-9"
         sodipodi:nodetypes="cccc" /><path
         style="fill:#000000;stroke-width:0.264583"
         d="m -38.219059,94.015956 c 0.50725,-0.31492 1.12603,0.15083 1.45875,-1.3858 l 0.14587,-8.75246 c -0.34475,-0.71877 -0.35388,-1.50467 -1.60462,-2.04224 l -19.83889,-0.21881 c -1.60023,0.35205 -1.84036,1.09269 -2.11518,1.82343 l -0.0729,9.0442 c 0.31842,0.63526 -0.0253,1.36511 1.53168,1.82343 z"
         id="path1"
         sodipodi:nodetypes="ccccccccc" /><path
         style="fill:#000000;stroke-width:0.264583"
         d="m -36.641809,90.157156 c 26.69552,0.40204 43.98234,-7.18858 41.46577,-41.87837 L 0.07912104,47.969346 C -1.059779,87.242846 -19.508099,84.518296 -37.157549,86.443806"
         id="path2"
         sodipodi:nodetypes="cccc" /><path
         style="fill:#000000;stroke-width:0.264583"
         d="m -3.324779,47.866196 14.23451,0.10315 c 4.14087,-0.11812 5.51707,-2.77053 6.39522,-5.87948 L 17.201801,6.6067257 c -0.64437,-2.5768 -2.10953,-4.538 -4.95113,-5.46688 L -2.809039,0.83039572 c -3.56496,0.50450998 -4.14844,3.71676998 -4.53855,5.26057998 l 0.10316,37.3398303 c 0.75663,2.30334 1.54878,4.55341 3.91965,4.43539 z"
         id="path3"
         sodipodi:nodetypes="ccccccccc" /><path
         style="fill:#000000;stroke-width:0.264583"
         d="m -129.45763,47.487994 14.23451,0.10315 c 4.14087,-0.11812 5.51707,-2.77053 6.39522,-5.87948 l -0.10315,-35.4831405 c -0.64437,-2.5768 -2.10953,-4.538 -4.95113,-5.46688005 l -15.05971,-0.30944996 c -3.56496,0.50450996 -4.14844,3.71677001 -4.53855,5.26058001 l 0.10316,37.3398305 c 0.75663,2.30334 1.54878,4.55341 3.91965,4.43539 z"
         id="path3-1"
         sodipodi:nodetypes="ccccccccc" /><path
         style="fill:#000000;stroke-width:0.264583"
         d="m 17.359031,35.374506 c 3.3589,-0.6797 7.206,-5.00144 6.71023,-9.6277 0.38801,-5.15716 -2.42995,-8.02409 -6.49141,-10.2112 z"
         id="path4"
         sodipodi:nodetypes="cccc" /><path
         style="fill:#000000;stroke-width:0.264583"
         d="m -117.86641,0.47409572 c 9.59876,-53.69502472 92.023231,-88.30577572 119.908651,0.1094 l 7.58546,-0.0729 c -13.95147,-82.70216372 -121.980121,-81.75798772 -134.569011,0 z"
         id="path5"
         sodipodi:nodetypes="ccccc" /><path
         style="fill:#000000;stroke-width:0.264583"
         d="m -56.307469,44.345776 c 2.98297,-0.0748 5.33166,-0.99525 7.14784,-2.62574 -1.13097,-1.19521 -2.17628,-2.41898 -1.02112,-4.37623 0.0914,-2.14144 2.28092,-3.5835 4.66798,-4.95972 1.36149,-0.18197 2.72299,-0.66182 4.08448,1.02112 l 15.90029,16.33792 c 0.22794,1.11837 1.14383,2.23673 -0.43762,3.3551 l -3.50098,4.08448 c -1.63051,-0.15532 -2.98444,1.3488 -4.95973,-0.87524 -10.92782,9.10684 -19.23669,3.11986 -25.44163,-1.87515 l -30.823755,-30.70291 c -10.523826,-11.12659 -8.366853,-20.3929603 -3.811319,-26.6727843 -0.892856,-1.026678 -1.290465,-2.180856 -1.235635,-4.344758 0.518299,-2.8575917 3.193202,-6.1169357 7.524669,-5.5074577 8.722097,5.9807527 13.477492,9.8571147 18.272866,18.0540597 0.0801,1.08553 0.536618,2.26562 -0.31463,2.79234 -0.991024,2.1533303 -2.78595,3.3315103 -4.344758,4.5385403 -1.756291,0.11965 -4.039512,0.64565 -4.538541,-1.65038 -2.45998,2.10046 -3.103864,5.00808 -2.062974,8.66449 z"
         id="path6"
         sodipodi:nodetypes="cccccccccccccccccccc" /><path
         style="fill:#000000;stroke-width:0.264583"
         d="m -43.418959,22.379186 c 1.42037,0.48755 2.41061,-0.43543 3.00294,-1.52801 1.85133,-6.98525 -0.31712,-20.41151028 -18.37131,-18.9548103 -0.89001,0.63945 -3.32187,2.82528 0.72937,4.95972 7.25335,-0.32104 13.68858,1.90186 12.44204,13.9346603 0.64636,1.17102 1.5506,1.3132 2.19696,1.58844 z"
         id="path7"
         sodipodi:nodetypes="cccccc" /><path
         style="fill:#000000;stroke-width:0.432273"
         d="m -33.118679,23.041286 c 2.32306,0.79571 3.94263,-0.71064 4.91141,-2.49379 3.02791,-11.4002703 -0.51866,-33.312583 -30.04688,-30.935177 -1.45564,1.0436137 -5.43302,4.6109947 1.19291,8.0945047 11.86309,-0.52395 22.38812,3.10393202 20.34936,22.7420523 1.05714,1.91116 2.53606,2.14321 3.5932,2.59241 z"
         id="path7-5"
         sodipodi:nodetypes="cccccc" /><path
         style="fill:#000000;stroke-width:0.590117"
         d="m -20.793289,22.620626 c 2.98933,1.1524 5.0734,-1.02919 6.32004,-3.61166 3.89634,-16.5105603 -0.66742,-48.245309 -38.66456,-44.802204 -1.87313,1.511425 -6.99126,6.677928 1.53504,11.72296 15.26552,-0.758816 28.80921,4.4952987 26.18572,32.936414 1.36033,2.76786 3.26342,3.10393 4.62376,3.75449 z"
         id="path7-5-3"
         sodipodi:nodetypes="cccccc" /></g></g></svg>
